<svg xmlns="http://www.w3.org/2000/svg" width="24" height="24" viewBox="0 0 24 24"><path fill="#CB214B" d="M22.213 5.63v14.5c0 .686-.246 1.273-.736 1.765-.49.49-1.08.736-1.766.736H5.21c-.686 0-1.274-.244-1.765-.735-.49-.49-.736-1.08-.736-1.765V5.63c0-.687.245-1.275.735-1.766.49-.49 1.08-.736 1.765-.736h14.5c.687 0 1.274.246 1.766.736.49.49.737 1.08.737 1.765zm-2.21 13.98v-8.23H18.29c.168.533.253 1.088.253 1.663 0 1.067-.27 2.05-.812 2.952-.54.902-1.277 1.615-2.208 2.14-.932.525-1.947.788-3.048.788-1.668 0-3.094-.574-4.28-1.72-1.184-1.148-1.776-2.534-1.776-4.16 0-.575.084-1.13.254-1.663H4.88v8.23c0 .22.074.403.222.55.148.15.332.224.552.224h13.574c.212 0 .394-.074.546-.223.153-.146.23-.33.23-.55zm-4.755-4.084c.766-.74 1.15-1.636 1.15-2.685 0-1.05-.385-1.944-1.15-2.685-.767-.74-1.69-1.11-2.774-1.11-1.075 0-1.996.37-2.762 1.11s-1.15 1.636-1.15 2.686.384 1.945 1.15 2.686c.766.74 1.687 1.11 2.762 1.11 1.083.002 2.007-.368 2.774-1.11zm4.756-7.256V6.175c0-.237-.085-.442-.255-.616-.17-.174-.377-.26-.623-.26h-2.21c-.245 0-.452.086-.62.26-.17.172-.255.378-.255.615V8.27c0 .246.084.453.254.622.17.17.376.254.622.254h2.21c.245 0 .452-.084.62-.254.17-.17.256-.376.256-.622z"/></svg>