<?xml version="1.0" encoding="utf-8"?>
<!-- Generator: Adobe Illustrator 15.1.0, SVG Export Plug-In . SVG Version: 6.00 Build 0)  -->
<!DOCTYPE svg PUBLIC "-//W3C//DTD SVG 1.1//EN" "http://www.w3.org/Graphics/SVG/1.1/DTD/svg11.dtd">
<svg version="1.1" id="Layer_1" xmlns="http://www.w3.org/2000/svg" xmlns:xlink="http://www.w3.org/1999/xlink" x="0px" y="0px"
	 width="24px" height="24px" viewBox="0 0 24 24" enable-background="new 0 0 24 24" xml:space="preserve">
<g>
	<path fill="#343738" d="M22.213,5.629V20.13c0,0.686-0.246,1.273-0.736,1.765c-0.491,0.491-1.079,0.736-1.766,0.736H5.21
		c-0.686,0-1.274-0.245-1.765-0.736c-0.491-0.491-0.736-1.079-0.736-1.765V5.629c0-0.686,0.246-1.274,0.736-1.765
		c0.491-0.491,1.08-0.736,1.765-0.736h14.5c0.687,0,1.274,0.246,1.766,0.736C21.967,4.355,22.213,4.943,22.213,5.629z
		 M20.004,19.609v-8.229h-1.715c0.169,0.533,0.254,1.088,0.254,1.663c0,1.067-0.271,2.051-0.812,2.952
		c-0.542,0.902-1.278,1.615-2.209,2.14c-0.932,0.525-1.947,0.788-3.048,0.788c-1.668,0-3.094-0.574-4.279-1.721
		c-1.185-1.147-1.777-2.533-1.777-4.159c0-0.575,0.084-1.13,0.254-1.663H4.88v8.229c0,0.22,0.074,0.404,0.222,0.552
		c0.148,0.148,0.332,0.223,0.552,0.223h13.574c0.212,0,0.394-0.074,0.546-0.223C19.927,20.014,20.004,19.829,20.004,19.609z
		 M15.248,15.526c0.766-0.74,1.149-1.636,1.149-2.685c0-1.05-0.384-1.945-1.149-2.686c-0.767-0.741-1.691-1.111-2.774-1.111
		c-1.075,0-1.996,0.371-2.762,1.111s-1.149,1.636-1.149,2.686c0,1.049,0.383,1.944,1.149,2.685c0.766,0.741,1.687,1.111,2.762,1.111
		C13.557,16.638,14.481,16.268,15.248,15.526z M20.004,8.27V6.175c0-0.237-0.085-0.442-0.255-0.616
		c-0.169-0.173-0.376-0.26-0.622-0.26h-2.209c-0.246,0-0.453,0.087-0.622,0.26c-0.17,0.173-0.254,0.379-0.254,0.616V8.27
		c0,0.246,0.084,0.453,0.254,0.622c0.169,0.169,0.376,0.254,0.622,0.254h2.209c0.246,0,0.453-0.084,0.622-0.254
		C19.919,8.723,20.004,8.516,20.004,8.27z"/>
</g>
</svg>
