<?xml version="1.0" encoding="utf-8"?>
<!-- Generator: Adobe Illustrator 15.1.0, SVG Export Plug-In . SVG Version: 6.00 Build 0)  -->
<!DOCTYPE svg PUBLIC "-//W3C//DTD SVG 1.1 Tiny//EN" "http://www.w3.org/Graphics/SVG/1.1/DTD/svg11-tiny.dtd">
<svg version="1.1" baseProfile="tiny" id="Layer_1" xmlns="http://www.w3.org/2000/svg" xmlns:xlink="http://www.w3.org/1999/xlink"
	 x="0px" y="0px" width="187px" height="46px" viewBox="0 0 187 46" overflow="inherit" xml:space="preserve">
<g>
	<path fill="#353637" d="M2.281,44.703V34.526h2.157v10.177H2.281z"/>
	<path fill="#353637" d="M7.765,44.703V34.526h2.157v8.396h4.128v1.781H7.765z"/>
	<path fill="#353637" d="M16.568,44.703V34.526h2.157v8.396h4.128v1.781H16.568z"/>
	<path fill="#353637" d="M33.541,34.526v6.585c0,0.752-0.169,1.41-0.505,1.977c-0.337,0.566-0.822,1-1.458,1.302
		c-0.637,0.302-1.388,0.452-2.256,0.452c-1.309,0-2.325-0.334-3.049-1.006c-0.724-0.67-1.086-1.588-1.086-2.752v-6.558h2.151v6.229
		c0,0.785,0.157,1.36,0.473,1.727c0.316,0.367,0.838,0.551,1.566,0.551c0.705,0,1.217-0.186,1.535-0.555
		c0.317-0.368,0.477-0.947,0.477-1.736v-6.216H33.541z"/>
	<path fill="#353637" d="M42.866,41.877c0,0.919-0.331,1.643-0.992,2.172s-1.581,0.793-2.76,0.793c-1.086,0-2.047-0.203-2.882-0.611
		v-2.006c0.687,0.307,1.268,0.522,1.744,0.648c0.476,0.125,0.91,0.188,1.305,0.188c0.474,0,0.836-0.091,1.089-0.271
		c0.253-0.182,0.38-0.45,0.38-0.808c0-0.199-0.056-0.377-0.167-0.532c-0.111-0.156-0.275-0.305-0.491-0.449
		c-0.216-0.144-0.655-0.373-1.318-0.689c-0.622-0.292-1.089-0.572-1.399-0.842s-0.56-0.582-0.745-0.939s-0.278-0.775-0.278-1.254
		c0-0.899,0.306-1.607,0.915-2.123c0.61-0.515,1.454-0.771,2.53-0.771c0.529,0,1.034,0.062,1.515,0.188s0.982,0.302,1.507,0.529
		l-0.696,1.678c-0.543-0.223-0.992-0.379-1.347-0.467c-0.355-0.088-0.704-0.133-1.048-0.133c-0.408,0-0.722,0.096-0.939,0.285
		c-0.219,0.191-0.327,0.439-0.327,0.746c0,0.189,0.044,0.355,0.132,0.497c0.089,0.142,0.229,0.278,0.422,0.411
		c0.192,0.132,0.648,0.369,1.367,0.713c0.951,0.455,1.604,0.911,1.956,1.368S42.866,41.213,42.866,41.877z"/>
	<path fill="#353637" d="M49.817,44.703h-2.158v-8.381h-2.764v-1.796h7.685v1.796h-2.763V44.703z"/>
	<path fill="#353637" d="M57.159,40.799v3.904h-2.157V34.526h2.965c1.383,0,2.406,0.252,3.069,0.755
		c0.664,0.504,0.996,1.269,0.996,2.294c0,0.599-0.165,1.132-0.494,1.598c-0.33,0.466-0.797,0.831-1.399,1.097
		c1.531,2.287,2.529,3.766,2.993,4.434h-2.395l-2.43-3.904H57.159z M57.159,39.044h0.696c0.682,0,1.186-0.114,1.511-0.341
		c0.324-0.228,0.487-0.585,0.487-1.072c0-0.482-0.166-0.826-0.498-1.029c-0.332-0.205-0.846-0.307-1.542-0.307h-0.654V39.044z"/>
	<path fill="#353637" d="M72.279,44.703l-0.738-2.422h-3.71l-0.737,2.422h-2.325l3.592-10.219h2.638l3.606,10.219H72.279z
		 M71.026,40.471c-0.683-2.195-1.066-3.436-1.152-3.724s-0.147-0.515-0.185-0.683c-0.152,0.594-0.592,2.062-1.315,4.406H71.026z"/>
	<path fill="#353637" d="M79.917,44.703h-2.158v-8.381h-2.764v-1.796h7.685v1.796h-2.763V44.703z"/>
	<path fill="#353637" d="M85.102,44.703V34.526h2.157v10.177H85.102z"/>
	<path fill="#353637" d="M99.857,39.602c0,1.684-0.418,2.979-1.253,3.883c-0.835,0.905-2.032,1.357-3.592,1.357
		c-1.559,0-2.756-0.452-3.592-1.357c-0.835-0.904-1.253-2.203-1.253-3.897s0.419-2.987,1.257-3.88
		c0.837-0.895,2.038-1.341,3.602-1.341c1.564,0,2.761,0.45,3.589,1.351S99.857,37.912,99.857,39.602z M92.431,39.602
		c0,1.137,0.216,1.992,0.647,2.568c0.432,0.575,1.076,0.863,1.935,0.863c1.722,0,2.583-1.145,2.583-3.432
		c0-2.293-0.856-3.439-2.569-3.439c-0.858,0-1.506,0.289-1.941,0.867C92.648,37.606,92.431,38.464,92.431,39.602z"/>
	<path fill="#353637" d="M111.778,44.703h-2.742l-4.427-7.699h-0.063c0.089,1.36,0.133,2.33,0.133,2.91v4.789h-1.928V34.526h2.721
		l4.421,7.622h0.049c-0.07-1.322-0.104-2.258-0.104-2.805v-4.817h1.941V44.703z"/>
	<path fill="#353637" d="M125.898,44.703l-0.738-2.422h-3.71l-0.737,2.422h-2.325l3.592-10.219h2.638l3.606,10.219H125.898z
		 M124.646,40.471c-0.683-2.195-1.066-3.436-1.152-3.724s-0.147-0.515-0.185-0.683c-0.152,0.594-0.592,2.062-1.315,4.406H124.646z"
		/>
	<path fill="#353637" d="M139.525,44.703h-2.742l-4.427-7.699h-0.063c0.089,1.36,0.133,2.33,0.133,2.91v4.789h-1.928V34.526h2.721
		l4.421,7.622h0.049c-0.07-1.322-0.104-2.258-0.104-2.805v-4.817h1.941V44.703z"/>
	<path fill="#353637" d="M151.299,39.518c0,1.676-0.478,2.958-1.431,3.85c-0.954,0.891-2.331,1.336-4.132,1.336h-2.881V34.526h3.194
		c1.661,0,2.951,0.438,3.87,1.315S151.299,37.944,151.299,39.518z M149.057,39.573c0-2.187-0.965-3.278-2.896-3.278h-1.148v6.627
		h0.926C148.018,42.922,149.057,41.805,149.057,39.573z"/>
	<path fill="#353637" d="M164.966,44.703l-0.738-2.422h-3.71l-0.737,2.422h-2.325l3.592-10.219h2.638l3.606,10.219H164.966z
		 M163.713,40.471c-0.683-2.195-1.066-3.436-1.152-3.724s-0.147-0.515-0.185-0.683c-0.152,0.594-0.592,2.062-1.315,4.406H163.713z"
		/>
	<path fill="#353637" d="M171.723,40.799v3.904h-2.157V34.526h2.965c1.383,0,2.406,0.252,3.069,0.755
		c0.664,0.504,0.996,1.269,0.996,2.294c0,0.599-0.165,1.132-0.494,1.598c-0.33,0.466-0.797,0.831-1.399,1.097
		c1.531,2.287,2.529,3.766,2.993,4.434h-2.395l-2.43-3.904H171.723z M171.723,39.044h0.696c0.682,0,1.186-0.114,1.511-0.341
		c0.324-0.228,0.487-0.585,0.487-1.072c0-0.482-0.166-0.826-0.498-1.029c-0.332-0.205-0.846-0.307-1.542-0.307h-0.654V39.044z"/>
	<path fill="#353637" d="M183.779,44.703h-2.158v-8.381h-2.764v-1.796h7.685v1.796h-2.763V44.703z"/>
</g>
<g>
	<g>
		<g>
			<g>
				<path fill="#C8234B" d="M17.671,9.515c0,3.288-1.302,5.413-3.904,6.371l5.195,7.34h-5.636l-4.552-6.547H5.605v6.547h-4.58V2.703
					h7.78c3.189,0,5.467,0.539,6.826,1.615S17.671,7.126,17.671,9.515z M12.152,11.952c0.567-0.509,0.85-1.316,0.85-2.423
					c0-1.104-0.292-1.864-0.88-2.274c-0.586-0.411-1.615-0.617-3.08-0.617H5.605v6.078h3.347
					C10.519,12.715,11.584,12.46,12.152,11.952z"/>
			</g>
		</g>
		<g>
			<g>
				<path fill="#C8234B" d="M20.894,5.418c-0.5-0.499-0.75-1.111-0.75-1.835c0-0.724,0.25-1.335,0.75-1.834
					C21.392,1.25,22.005,1,22.728,1s1.337,0.25,1.835,0.749c0.501,0.499,0.75,1.111,0.75,1.834c0,0.724-0.249,1.336-0.75,1.835
					c-0.498,0.5-1.112,0.749-1.835,0.749S21.392,5.918,20.894,5.418z M24.929,23.226h-4.404V7.43h4.404V23.226z"/>
			</g>
		</g>
		<g>
			<g>
				<path fill="#C8234B" d="M35.366,19.556c1.469,0,2.789-0.734,3.963-2.203l2.615,2.936c-2.038,2.114-4.24,3.171-6.605,3.171
					c-2.37,0-4.371-0.748-6.005-2.246c-1.635-1.496-2.452-3.453-2.452-5.872c0-2.417,0.825-4.383,2.48-5.901
					c1.654-1.517,3.614-2.276,5.887-2.276c1.137,0,2.285,0.235,3.451,0.706c1.164,0.469,2.188,1.164,3.068,2.084l-2.293,2.995
					c-0.507-0.606-1.128-1.076-1.864-1.409c-0.731-0.332-1.462-0.499-2.186-0.499c-1.155,0-2.147,0.376-2.979,1.13
					c-0.834,0.753-1.248,1.801-1.248,3.141c0,1.341,0.414,2.383,1.248,3.126C33.278,19.185,34.251,19.556,35.366,19.556z"/>
			</g>
		</g>
		<g>
			<g>
				<path fill="#C8234B" d="M47.871,14.711v8.515h-4.405V1.44h4.405v7.751c1.329-1.35,2.821-2.026,4.477-2.026
					s3.048,0.587,4.185,1.762c1.134,1.175,1.703,2.74,1.703,4.698v9.601h-4.404v-8.632c0-2.427-0.891-3.64-2.672-3.64
					c-0.882,0-1.65,0.318-2.305,0.954C48.197,12.543,47.871,13.478,47.871,14.711z"/>
			</g>
		</g>
		<g>
			<g>
				<path fill="#C8234B" d="M74.374,23.226h-4.141v-1.909c-1.135,1.431-2.539,2.144-4.213,2.144s-3.079-0.484-4.213-1.453
					c-1.137-0.969-1.703-2.26-1.703-3.875s0.587-2.823,1.761-3.626c1.175-0.803,2.781-1.204,4.817-1.204h3.286v-0.087
					c0-1.683-0.89-2.525-2.671-2.525c-0.764,0-1.569,0.151-2.424,0.455c-0.85,0.304-1.57,0.68-2.158,1.13l-1.965-2.848
					c2.074-1.507,4.441-2.262,7.105-2.262c1.916,0,3.482,0.481,4.696,1.439c1.214,0.959,1.821,2.477,1.821,4.551V23.226z
					 M69.939,17.206v-0.763h-2.759c-1.762,0-2.643,0.548-2.643,1.644c0,0.568,0.21,1.004,0.63,1.307
					c0.423,0.304,1.022,0.456,1.806,0.456s1.474-0.239,2.07-0.72C69.642,18.649,69.939,18.01,69.939,17.206z"/>
			</g>
		</g>
		<g>
			<g>
				<path fill="#C8234B" d="M85.491,11.306c-1.312,0-2.291,0.464-2.937,1.395c-0.646,0.93-0.968,2.158-0.968,3.684v6.841h-4.406
					V7.43h4.406v2.085c0.566-0.646,1.276-1.194,2.129-1.644c0.852-0.45,1.717-0.685,2.598-0.706l0.03,4.141H85.491z"/>
			</g>
		</g>
		<g>
			<g>
				<path fill="#C8234B" d="M94.185,23.46c-1.87,0-3.537-0.793-5.006-2.378c-1.468-1.585-2.201-3.553-2.201-5.901
					c0-2.349,0.714-4.272,2.143-5.77c1.43-1.497,3.102-2.247,5.021-2.247c1.918,0,3.482,0.676,4.696,2.026V1.44h4.404v21.786h-4.404
					v-2.085C97.604,22.687,96.056,23.46,94.185,23.46z M91.411,15.356c0,1.273,0.381,2.314,1.145,3.127s1.653,1.219,2.672,1.219
					c1.018,0,1.883-0.406,2.598-1.219c0.714-0.812,1.07-1.859,1.07-3.142c0-1.281-0.356-2.348-1.07-3.199
					c-0.715-0.852-1.59-1.278-2.627-1.278s-1.929,0.431-2.672,1.292C91.782,13.019,91.411,14.085,91.411,15.356z"/>
			</g>
		</g>
		<g>
			<g>
				<path fill="#C8234B" d="M118.936,6.799c-0.44,0.362-0.663,0.842-0.663,1.438s0.271,1.071,0.811,1.424
					c0.537,0.353,1.778,0.769,3.728,1.248c1.947,0.479,3.458,1.2,4.534,2.158c1.078,0.959,1.616,2.358,1.616,4.199
					c0,1.84-0.69,3.331-2.068,4.478c-1.382,1.145-3.197,1.717-5.448,1.717c-3.25,0-6.173-1.203-8.778-3.61l2.729-3.348
					c2.213,1.938,4.258,2.906,6.138,2.906c0.841,0,1.502-0.181,1.981-0.542c0.479-0.362,0.719-0.853,0.719-1.469
					s-0.254-1.105-0.764-1.468c-0.51-0.362-1.518-0.729-3.023-1.1c-2.39-0.568-4.135-1.307-5.241-2.217
					c-1.104-0.911-1.658-2.339-1.658-4.287c0-1.947,0.701-3.449,2.099-4.507c1.4-1.057,3.147-1.585,5.24-1.585
					c1.37,0,2.742,0.235,4.111,0.704c1.371,0.47,2.563,1.136,3.582,1.997l-2.32,3.347c-1.779-1.35-3.62-2.025-5.52-2.025
					C119.976,6.255,119.374,6.437,118.936,6.799z"/>
			</g>
		</g>
		<g>
			<g>
				<path fill="#C8234B" d="M138.703,19.556c1.469,0,2.791-0.734,3.964-2.203l2.614,2.936c-2.036,2.114-4.237,3.171-6.606,3.171
					c-2.368,0-4.368-0.748-6.004-2.246c-1.634-1.496-2.45-3.453-2.45-5.872c0-2.417,0.824-4.383,2.479-5.901
					c1.653-1.517,3.615-2.276,5.889-2.276c1.135,0,2.284,0.235,3.448,0.706c1.163,0.469,2.186,1.164,3.069,2.084l-2.292,2.995
					c-0.509-0.606-1.131-1.076-1.862-1.409c-0.734-0.332-1.465-0.499-2.187-0.499c-1.157,0-2.15,0.376-2.981,1.13
					c-0.832,0.753-1.249,1.801-1.249,3.141c0,1.341,0.417,2.383,1.249,3.126C136.615,19.185,137.588,19.556,138.703,19.556z"/>
			</g>
		</g>
		<g>
			<g>
				<path fill="#353637" d="M162.297,15.327c0,2.291-0.792,4.219-2.377,5.784c-1.585,1.567-3.578,2.349-5.975,2.349
					c-2.397,0-4.388-0.781-5.976-2.349c-1.586-1.565-2.378-3.493-2.378-5.784c0-2.29,1.027-4.681,2.55-6.318
					c4.108-4.42,5.804-7.719,5.804-7.719s1.254,3.239,5.733,7.719C161.261,10.588,162.297,13.038,162.297,15.327z"/>
			</g>
		</g>
		<g>
			<g>
				<path fill="#C8234B" d="M169.069,10.601v7.076c0,0.607,0.158,1.082,0.47,1.424c0.314,0.343,0.685,0.514,1.116,0.514
					c0.821,0,1.518-0.372,2.086-1.116l1.645,3.083c-1.373,1.253-2.815,1.879-4.33,1.879c-1.519,0-2.801-0.5-3.846-1.498
					c-1.051-0.997-1.572-2.357-1.572-4.08v-7.281h-1.85V7.43h1.85V2.703h4.432V7.43h3.818v3.171H169.069z"/>
			</g>
		</g>
		<g>
			<g>
				<path fill="#C8234B" d="M180.485,10.601v7.076c0,0.607,0.155,1.082,0.47,1.424c0.312,0.343,0.684,0.514,1.116,0.514
					c0.821,0,1.516-0.372,2.084-1.116l1.644,3.083c-1.37,1.253-2.813,1.879-4.329,1.879c-1.518,0-2.8-0.5-3.846-1.498
					c-1.049-0.997-1.571-2.357-1.571-4.08v-7.281h-1.85V7.43h1.85V2.703h4.433V7.43h3.817v3.171H180.485z"/>
			</g>
		</g>
	</g>
	<g>
		<g>
			<circle fill="#F3F4F5" cx="149.915" cy="13.913" r="2.478"/>
		</g>
		<g>
			<path fill="#353637" d="M151.038,13.913c0,0.622-0.5,1.126-1.125,1.126c-0.622,0-1.125-0.504-1.125-1.126
				s0.503-1.125,1.125-1.125C150.538,12.788,151.038,13.292,151.038,13.913z"/>
		</g>
		<g>
			<circle fill="#F3F4F5" cx="157.606" cy="13.988" r="2.477"/>
		</g>
		<g>
			<circle fill="#353637" cx="157.607" cy="13.988" r="1.125"/>
		</g>
	</g>
</g>
</svg>
