<svg baseProfile="tiny" xmlns="http://www.w3.org/2000/svg" width="187" height="46" viewBox="0 0 187 46" overflow="inherit"><g fill="#353637"><path d="M2.28 44.703V34.526H4.44v10.177H2.28zM7.765 44.703V34.526h2.157v8.396h4.128v1.78H7.765zM16.568 44.703V34.526h2.157v8.396h4.128v1.78h-6.285zM33.54 34.526v6.585c0 .753-.168 1.41-.504 1.978-.337.566-.822 1-1.458 1.302-.637.302-1.388.452-2.256.452-1.31 0-2.325-.334-3.05-1.006-.723-.67-1.085-1.588-1.085-2.752v-6.558h2.15v6.23c0 .784.158 1.36.474 1.726.317.367.84.55 1.567.55.705 0 1.217-.185 1.535-.554.317-.368.477-.947.477-1.736v-6.216h2.15zM42.866 41.877c0 .92-.33 1.643-.992 2.172s-1.58.792-2.76.792c-1.086 0-2.047-.203-2.882-.61v-2.007c.687.307 1.268.522 1.744.648.476.125.91.188 1.305.188.475 0 .837-.09 1.09-.27.253-.182.38-.45.38-.808 0-.2-.056-.377-.167-.532-.11-.156-.275-.305-.49-.45-.217-.143-.656-.372-1.32-.688-.62-.292-1.088-.572-1.398-.842s-.56-.582-.745-.94-.278-.774-.278-1.253c0-.9.306-1.607.915-2.123.61-.515 1.454-.77 2.53-.77.53 0 1.034.06 1.515.187s.982.303 1.507.53l-.697 1.678c-.543-.223-.992-.38-1.347-.467-.355-.087-.704-.132-1.048-.132-.408 0-.722.096-.94.285-.218.19-.326.44-.326.746 0 .188.044.354.132.496.09.142.23.278.422.41.192.133.648.37 1.367.714.95.455 1.604.91 1.956 1.368s.526 1.015.526 1.68zM49.817 44.703H47.66v-8.38h-2.765v-1.797h7.685v1.796h-2.763v8.38zM57.16 40.8v3.903H55V34.526h2.965c1.383 0 2.406.252 3.07.755.663.505.995 1.27.995 2.295 0 .6-.165 1.132-.494 1.598-.33.466-.797.83-1.4 1.097 1.532 2.287 2.53 3.766 2.994 4.434h-2.395l-2.43-3.904H57.16zm0-1.756h.695c.682 0 1.186-.114 1.51-.34.325-.23.488-.586.488-1.073 0-.48-.166-.825-.498-1.028-.332-.205-.846-.307-1.542-.307h-.654v2.75zM72.28 44.703l-.74-2.422h-3.71l-.736 2.423H64.77l3.59-10.22H71l3.605 10.22H72.28zm-1.254-4.232c-.683-2.194-1.066-3.435-1.152-3.723s-.147-.515-.185-.683c-.153.594-.593 2.062-1.316 4.406h2.652zM79.917 44.703H77.76v-8.38h-2.765v-1.797h7.685v1.796h-2.763v8.38zM85.102 44.703V34.526h2.157v10.177H85.1zM99.857 39.602c0 1.684-.418 2.98-1.253 3.883-.835.905-2.032 1.357-3.592 1.357s-2.756-.452-3.592-1.357c-.835-.904-1.253-2.203-1.253-3.897s.42-2.987 1.257-3.88c.837-.895 2.038-1.34 3.602-1.34s2.76.45 3.59 1.35 1.24 2.194 1.24 3.884zm-7.426 0c0 1.137.217 1.992.648 2.568.432.575 1.076.863 1.935.863 1.722 0 2.583-1.145 2.583-3.432 0-2.292-.856-3.438-2.57-3.438-.857 0-1.505.29-1.94.867-.438.576-.655 1.434-.655 2.572zM111.778 44.703h-2.742l-4.427-7.7h-.064c.09 1.36.133 2.33.133 2.91v4.79h-1.93V34.526h2.722l4.42 7.622h.05c-.07-1.322-.104-2.258-.104-2.805v-4.817h1.94v10.177zM125.898 44.703l-.738-2.422h-3.71l-.737 2.423h-2.325l3.592-10.22h2.638l3.606 10.22h-2.326zm-1.252-4.232c-.683-2.194-1.066-3.435-1.152-3.723s-.147-.515-.185-.683c-.153.594-.593 2.062-1.316 4.406h2.652zM139.525 44.703h-2.742l-4.427-7.7h-.063c.09 1.36.133 2.33.133 2.91v4.79h-1.928V34.526h2.72l4.422 7.622h.05c-.07-1.322-.105-2.258-.105-2.805v-4.817h1.94v10.177zM151.3 39.518c0 1.676-.48 2.958-1.432 3.85-.954.89-2.33 1.336-4.132 1.336h-2.88V34.526h3.193c1.66 0 2.95.438 3.87 1.315s1.38 2.104 1.38 3.678zm-2.243.055c0-2.187-.965-3.278-2.896-3.278h-1.147v6.627h.926c2.078 0 3.117-1.117 3.117-3.35zM164.966 44.703l-.738-2.422h-3.71l-.737 2.423h-2.324l3.592-10.22h2.638l3.606 10.22h-2.326zm-1.253-4.232c-.683-2.194-1.066-3.435-1.152-3.723s-.146-.515-.184-.683c-.152.594-.592 2.062-1.315 4.406h2.653zM171.723 40.8v3.903h-2.157V34.526h2.965c1.384 0 2.407.252 3.07.755.664.505.996 1.27.996 2.295 0 .6-.165 1.132-.494 1.598-.33.466-.797.83-1.4 1.097 1.532 2.287 2.53 3.766 2.994 4.434H175.3l-2.43-3.904h-1.147zm0-1.756h.696c.68 0 1.185-.114 1.51-.34.324-.23.487-.586.487-1.073 0-.48-.166-.825-.498-1.028-.333-.205-.847-.307-1.543-.307h-.654v2.75zM183.78 44.703h-2.16v-8.38h-2.763v-1.797h7.685v1.796h-2.763v8.38z"/></g><path fill="#C8234B" d="M17.67 9.515c0 3.288-1.3 5.413-3.903 6.37l5.195 7.34h-5.636L8.774 16.68h-3.17v6.546h-4.58V2.703h7.78c3.19 0 5.468.54 6.827 1.615s2.04 2.808 2.04 5.197zm-5.518 2.437c.567-.51.85-1.316.85-2.423 0-1.105-.292-1.865-.88-2.275-.586-.41-1.615-.617-3.08-.617H5.605v6.078h3.347c1.567 0 2.632-.256 3.2-.764zM20.894 5.418c-.5-.5-.75-1.11-.75-1.835 0-.724.25-1.335.75-1.834.498-.5 1.11-.75 1.834-.75s1.337.25 1.835.75c.5.498.75 1.11.75 1.833 0 .724-.25 1.336-.75 1.835-.498.5-1.112.75-1.835.75s-1.336-.25-1.834-.75zm4.035 17.808h-4.405V7.43h4.404v15.796zM35.366 19.556c1.47 0 2.79-.734 3.963-2.203l2.614 2.936c-2.038 2.113-4.24 3.17-6.605 3.17-2.37 0-4.372-.748-6.006-2.246-1.635-1.496-2.452-3.453-2.452-5.872 0-2.417.825-4.383 2.48-5.9 1.654-1.518 3.614-2.277 5.887-2.277 1.136 0 2.284.235 3.45.706 1.164.47 2.188 1.165 3.068 2.085l-2.293 2.995c-.507-.606-1.128-1.076-1.864-1.41-.73-.33-1.46-.498-2.185-.498-1.155 0-2.147.376-2.98 1.13-.833.753-1.247 1.8-1.247 3.14 0 1.342.414 2.384 1.248 3.127.832.745 1.805 1.116 2.92 1.116zM47.87 14.71v8.516h-4.404V1.44h4.405v7.75c1.33-1.35 2.822-2.025 4.478-2.025s3.048.587 4.185 1.762c1.134 1.175 1.703 2.74 1.703 4.698v9.6h-4.404v-8.63c0-2.428-.89-3.64-2.672-3.64-.882 0-1.65.317-2.305.953-.658.635-.984 1.57-.984 2.803zM74.374 23.226h-4.14v-1.91c-1.136 1.432-2.54 2.145-4.214 2.145s-3.08-.483-4.213-1.452c-1.137-.97-1.703-2.26-1.703-3.875s.587-2.823 1.76-3.626c1.176-.803 2.782-1.204 4.818-1.204h3.286v-.087c0-1.683-.89-2.525-2.67-2.525-.765 0-1.57.152-2.425.456-.85.304-1.57.68-2.158 1.13L60.75 9.428c2.074-1.507 4.44-2.262 7.105-2.262 1.916 0 3.482.48 4.696 1.44 1.215.958 1.822 2.476 1.822 4.55v10.07zm-4.435-6.02v-.763h-2.76c-1.762 0-2.643.548-2.643 1.644 0 .568.21 1.004.63 1.307.423.304 1.022.456 1.806.456s1.474-.24 2.07-.72c.6-.48.896-1.12.896-1.924zM85.49 11.306c-1.31 0-2.29.464-2.936 1.395-.646.93-.968 2.16-.968 3.685v6.84H77.18V7.43h4.406v2.085c.566-.646 1.276-1.194 2.13-1.644.85-.45 1.716-.684 2.597-.705l.03 4.14h-.852zM94.185 23.46c-1.87 0-3.537-.793-5.006-2.378-1.47-1.585-2.202-3.553-2.202-5.9 0-2.35.714-4.273 2.143-5.77 1.43-1.498 3.103-2.248 5.022-2.248 1.918 0 3.482.676 4.696 2.026V1.44h4.404v21.786h-4.404V21.14c-1.234 1.547-2.782 2.32-4.653 2.32zm-2.774-8.104c0 1.273.382 2.314 1.146 3.127s1.653 1.22 2.672 1.22c1.018 0 1.883-.407 2.598-1.22.714-.812 1.07-1.86 1.07-3.142 0-1.28-.356-2.347-1.07-3.198-.715-.852-1.59-1.278-2.627-1.278s-1.93.43-2.673 1.292c-.745.863-1.116 1.93-1.116 3.2zM118.936 6.8c-.44.36-.663.84-.663 1.437s.27 1.07.81 1.424c.538.354 1.78.77 3.73 1.25 1.946.478 3.457 1.2 4.533 2.157 1.078.96 1.616 2.358 1.616 4.2 0 1.84-.69 3.33-2.068 4.477-1.382 1.145-3.197 1.717-5.448 1.717-3.25 0-6.173-1.202-8.778-3.61l2.73-3.347c2.212 1.938 4.257 2.906 6.137 2.906.84 0 1.502-.182 1.98-.543.48-.362.72-.853.72-1.47s-.254-1.104-.764-1.467c-.51-.362-1.517-.73-3.022-1.1-2.39-.568-4.135-1.307-5.24-2.217-1.105-.91-1.66-2.34-1.66-4.287s.702-3.45 2.1-4.507c1.4-1.058 3.147-1.586 5.24-1.586 1.37 0 2.742.235 4.11.704 1.372.47 2.564 1.136 3.583 1.997l-2.32 3.347c-1.778-1.35-3.62-2.025-5.52-2.025-.764-.002-1.366.18-1.804.542zM138.703 19.556c1.47 0 2.79-.734 3.964-2.203l2.614 2.936c-2.035 2.113-4.236 3.17-6.605 3.17-2.368 0-4.368-.748-6.004-2.246-1.633-1.496-2.45-3.453-2.45-5.872 0-2.417.825-4.383 2.48-5.9 1.653-1.518 3.615-2.277 5.89-2.277 1.134 0 2.283.235 3.447.706 1.163.47 2.186 1.165 3.07 2.085l-2.293 2.995c-.51-.606-1.13-1.076-1.862-1.41-.734-.33-1.465-.498-2.187-.498-1.157 0-2.15.376-2.98 1.13-.833.753-1.25 1.8-1.25 3.14 0 1.342.417 2.384 1.25 3.127.83.745 1.803 1.116 2.918 1.116z"/><path fill="#353637" d="M162.297 15.327c0 2.29-.792 4.22-2.377 5.784-1.585 1.568-3.578 2.35-5.975 2.35s-4.388-.78-5.976-2.35c-1.587-1.564-2.38-3.492-2.38-5.783 0-2.29 1.028-4.68 2.55-6.318 4.11-4.42 5.805-7.72 5.805-7.72s1.254 3.24 5.733 7.72c1.583 1.578 2.62 4.028 2.62 6.317z"/><path fill="#C8234B" d="M169.07 10.6v7.077c0 .607.157 1.082.47 1.424.313.344.684.515 1.115.515.82 0 1.518-.372 2.086-1.116l1.646 3.082c-1.373 1.253-2.815 1.88-4.33 1.88-1.52 0-2.8-.5-3.846-1.5-1.05-.996-1.572-2.356-1.572-4.08v-7.28h-1.85V7.43h1.85V2.703h4.432V7.43h3.818v3.17h-3.82zM180.485 10.6v7.077c0 .607.155 1.082.47 1.424.312.344.684.515 1.116.515.822 0 1.517-.372 2.085-1.116l1.644 3.082c-1.37 1.253-2.814 1.88-4.33 1.88-1.518 0-2.8-.5-3.846-1.5-1.05-.996-1.57-2.356-1.57-4.08v-7.28h-1.85V7.43h1.85V2.703h4.432V7.43h3.817v3.17h-3.818z"/><g><circle fill="#F3F4F5" cx="149.915" cy="13.913" r="2.478"/><path fill="#353637" d="M151.038 13.913c0 .622-.5 1.126-1.125 1.126-.622 0-1.125-.505-1.125-1.127s.503-1.125 1.125-1.125c.625 0 1.125.504 1.125 1.125z"/><circle fill="#F3F4F5" cx="157.606" cy="13.988" r="2.477"/><circle fill="#353637" cx="157.607" cy="13.988" r="1.125"/></g></svg>