<?xml version="1.0" encoding="utf-8"?>
<!-- Generator: Adobe Illustrator 15.1.0, SVG Export Plug-In . SVG Version: 6.00 Build 0)  -->
<!DOCTYPE svg PUBLIC "-//W3C//DTD SVG 1.1 Tiny//EN" "http://www.w3.org/Graphics/SVG/1.1/DTD/svg11-tiny.dtd">
<svg version="1.1" baseProfile="tiny" id="Layer_1" xmlns="http://www.w3.org/2000/svg" xmlns:xlink="http://www.w3.org/1999/xlink"
	 x="0px" y="0px" width="24px" height="24px" viewBox="0 0 24 24" overflow="inherit" xml:space="preserve">
<g>
	<path fill="#353637" d="M22.5,6.006c0,0.595-0.185,1.165-0.554,1.707c-0.37,0.542-0.829,1.006-1.38,1.39
		c-2.832,1.968-4.596,3.191-5.289,3.674c-0.074,0.053-0.236,0.166-0.48,0.344c-0.245,0.179-0.447,0.32-0.609,0.429
		c-0.163,0.11-0.359,0.232-0.588,0.368c-0.231,0.137-0.447,0.238-0.65,0.305c-0.203,0.068-0.392,0.102-0.564,0.102h-0.012h-0.012
		c-0.173,0-0.361-0.033-0.565-0.102c-0.203-0.066-0.42-0.168-0.649-0.305c-0.23-0.136-0.425-0.258-0.588-0.368
		c-0.162-0.108-0.364-0.25-0.61-0.429c-0.244-0.178-0.405-0.291-0.479-0.344c-0.686-0.483-1.673-1.17-2.962-2.062
		C5.218,9.821,4.446,9.283,4.189,9.102C3.723,8.786,3.281,8.351,2.868,7.797C2.454,7.244,2.246,6.729,2.246,6.255
		c0-0.588,0.157-1.078,0.47-1.47c0.312-0.391,0.758-0.587,1.338-0.587h16.637c0.489,0,0.913,0.177,1.271,0.531
		C22.32,5.083,22.5,5.509,22.5,6.006z M22.5,9.33v8.972c0,0.498-0.177,0.924-0.531,1.275c-0.354,0.357-0.779,0.535-1.277,0.535
		H4.054c-0.498,0-0.923-0.178-1.277-0.535c-0.354-0.352-0.531-0.777-0.531-1.275V9.33c0.331,0.369,0.712,0.695,1.142,0.982
		c2.727,1.852,4.599,3.153,5.617,3.9c0.429,0.316,0.778,0.562,1.045,0.74c0.267,0.176,0.623,0.357,1.068,0.541
		c0.445,0.186,0.858,0.277,1.243,0.277h0.012h0.012c0.384,0,0.797-0.092,1.242-0.277c0.445-0.184,0.801-0.365,1.068-0.541
		c0.268-0.178,0.616-0.424,1.045-0.74c1.282-0.927,3.158-2.227,5.629-3.9C21.799,10.019,22.175,9.69,22.5,9.33z"/>
</g>
</svg>
