<svg baseProfile="tiny" xmlns="http://www.w3.org/2000/svg" width="24" height="24" viewBox="0 0 24 24" overflow="inherit"><path fill="#353637" d="M22.5 6.006c0 .595-.185 1.165-.554 1.707-.37.542-.83 1.006-1.38 1.39-2.832 1.968-4.596 3.19-5.29 3.674-.073.053-.235.166-.48.344-.244.18-.446.32-.608.43-.163.11-.36.232-.588.368-.23.137-.447.238-.65.305-.203.068-.392.102-.564.102h-.024c-.173 0-.36-.033-.565-.102-.203-.066-.42-.168-.65-.305-.23-.136-.424-.258-.587-.368-.162-.108-.364-.25-.61-.43-.244-.177-.405-.29-.48-.343-.685-.483-1.672-1.17-2.96-2.062-1.292-.894-2.064-1.432-2.32-1.613-.467-.316-.91-.75-1.322-1.305-.414-.553-.622-1.068-.622-1.542 0-.588.157-1.078.47-1.47.312-.39.758-.587 1.338-.587H20.69c.49 0 .914.177 1.272.53.358.355.538.78.538 1.278zm0 3.324v8.972c0 .498-.177.924-.53 1.275-.355.357-.78.535-1.278.535H4.054c-.498 0-.923-.178-1.277-.535-.354-.352-.53-.777-.53-1.275V9.33c.33.37.71.695 1.14.982 2.728 1.852 4.6 3.153 5.618 3.9.43.316.778.562 1.045.74.267.176.623.357 1.068.54.445.187.858.278 1.243.278h.025c.384 0 .797-.092 1.242-.277.445-.184.8-.365 1.068-.54.268-.18.616-.425 1.045-.74 1.282-.928 3.158-2.228 5.63-3.9.43-.294.805-.623 1.13-.983z"/></svg>