<?xml version="1.0" encoding="utf-8"?>
<!-- Generator: Adobe Illustrator 15.1.0, SVG Export Plug-In . SVG Version: 6.00 Build 0)  -->
<!DOCTYPE svg PUBLIC "-//W3C//DTD SVG 1.1//EN" "http://www.w3.org/Graphics/SVG/1.1/DTD/svg11.dtd">
<svg version="1.1" id="Layer_1" xmlns="http://www.w3.org/2000/svg" xmlns:xlink="http://www.w3.org/1999/xlink" x="0px" y="0px"
	 width="24px" height="24px" viewBox="0 0 24 24" enable-background="new 0 0 24 24" xml:space="preserve">
<g>
	<path fill="#343738" d="M21.904,6.808c-0.567,0.83-1.253,1.537-2.057,2.121c0.008,0.119,0.013,0.296,0.013,0.533
		c0,1.101-0.161,2.199-0.482,3.295c-0.322,1.096-0.811,2.147-1.467,3.155s-1.438,1.898-2.343,2.673
		c-0.906,0.774-1.998,1.393-3.276,1.854c-1.278,0.462-2.646,0.692-4.101,0.692c-2.294,0-4.394-0.613-6.298-1.841
		c0.296,0.033,0.626,0.051,0.991,0.051c1.904,0,3.602-0.584,5.092-1.753c-0.889-0.017-1.685-0.29-2.387-0.818
		c-0.703-0.529-1.186-1.204-1.448-2.025c0.279,0.042,0.538,0.063,0.774,0.063c0.364,0,0.724-0.047,1.08-0.14
		c-0.948-0.195-1.733-0.667-2.355-1.416s-0.933-1.619-0.933-2.609v-0.051c0.575,0.322,1.193,0.495,1.854,0.521
		C4,10.74,3.556,10.253,3.226,9.652c-0.33-0.601-0.495-1.252-0.495-1.955c0-0.745,0.186-1.435,0.559-2.07
		C4.313,6.888,5.56,7.898,7.029,8.655c1.469,0.758,3.042,1.179,4.717,1.263c-0.067-0.321-0.102-0.635-0.102-0.939
		c0-1.134,0.4-2.102,1.2-2.901s1.767-1.2,2.901-1.2c1.185,0,2.184,0.432,2.997,1.295c0.922-0.178,1.79-0.508,2.603-0.99
		c-0.313,0.973-0.914,1.727-1.803,2.26C20.33,7.358,21.117,7.146,21.904,6.808z"/>
</g>
</svg>
