<svg xmlns="http://www.w3.org/2000/svg" width="24" height="24" viewBox="0 0 24 24"><path fill="#343738" d="M21.904 6.808c-.567.83-1.253 1.537-2.057 2.12.008.12.013.297.013.534 0 1.1-.16 2.2-.482 3.295-.322 1.096-.81 2.147-1.467 3.155s-1.437 1.898-2.342 2.673c-.906.774-1.998 1.393-3.276 1.854-1.278.46-2.646.69-4.1.69-2.295 0-4.395-.612-6.3-1.84.297.033.627.05.992.05 1.904 0 3.602-.583 5.092-1.752-.89-.017-1.685-.29-2.387-.818-.704-.53-1.187-1.204-1.45-2.025.28.042.54.063.775.063.364 0 .724-.047 1.08-.14-.948-.195-1.733-.667-2.355-1.416s-.933-1.62-.933-2.61v-.05c.575.322 1.193.495 1.854.52-.56-.372-1.004-.86-1.334-1.46-.33-.6-.495-1.252-.495-1.955 0-.745.187-1.435.56-2.07 1.023 1.26 2.27 2.27 3.74 3.028 1.468.758 3.04 1.18 4.716 1.263-.067-.32-.102-.635-.102-.94 0-1.133.4-2.1 1.2-2.9s1.767-1.2 2.9-1.2c1.186 0 2.185.432 2.998 1.295.922-.178 1.79-.508 2.603-.99-.313.973-.914 1.727-1.803 2.26.788-.085 1.575-.297 2.362-.635z"/></svg>